<?xml version="1.0" encoding="utf-8"?>
<!-- Generator: Adobe Illustrator 25.0.1, SVG Export Plug-In . SVG Version: 6.00 Build 0)  -->
<svg version="1.1" id="katman_1" xmlns="http://www.w3.org/2000/svg" xmlns:xlink="http://www.w3.org/1999/xlink" x="0px" y="0px"
	 viewBox="0 0 1200 800" style="enable-background:new 0 0 1200 800;" xml:space="preserve">
<style type="text/css">
	.st0{fill:#0000FF;}
</style>
<path class="st0" d="M374.7,438.3c0,11-4.6,16.3-13.9,16.3c-9.3,0-13.9-5.2-13.9-16.3V324.5h-26.1v113.2c0,26.1,15.1,40.1,40.1,40.1
	c25,0,40.1-14.5,40.1-40.1V324.5h-26.1V438.3z M199.4,395.9c12.8-5.2,18-18.6,18-31.9c0-25.5-12.2-40.1-40.1-40.1h-38.9v150.9h41.2
	c29.6,0,40.6-18.6,40.6-43.5C220.3,412.2,212.2,401.7,199.4,395.9L199.4,395.9z M164.6,345.4h9.9c11.6,0,16.8,7,16.8,21.5
	c0,12.8-7.5,19.2-17.4,19.2H164L164.6,345.4z M175,454h-10.4v-46.4h8.1c15.7,0,21.5,7.5,21.5,23.2C194.2,445.9,189,454,175,454
	L175,454z M450.2,408.7h33.7v-22.6h-33.7v-38.9h43.5v-22.6h-69.7v150.9h72.6v-22.6h-46.4V408.7z M267.3,324.5h-25.5v150.9h66.8
	v-22.6h-40.6V324.5L267.3,324.5z M928.6,475.5h26.1V324.5h-26.1V475.5z M866.5,322.2c-27.3,0-40.1,17.4-40.1,38.9v77.8
	c0,21.5,12.8,38.9,40.1,38.9c0,0,14.5-0.6,25.5-9.3l13.9,9.3v-78.4h-41.8v20.3h18.6v19.2c0,16.8-14.5,16.3-14.5,16.3h-1.7
	c-10.5,0-13.9-5.2-13.9-16.8v-76.6c0-11,3.5-16.8,13.9-16.8c10.4,0,13.9,5.2,13.9,16.8v11.6h26.1v-12.2
	C906.5,339.6,893.8,322.2,866.5,322.2z M607.6,322.2c-27.3,0-39.5,17.4-39.5,38.9v77.8c0,21.5,12.8,38.9,40.1,38.9
	c27.3,0,40.1-17.4,40.1-38.9v-77.8C647.6,339.6,634.8,322.2,607.6,322.2L607.6,322.2z M621.5,438.3c0,11-3.5,16.8-13.9,16.8
	c-10.5,0-13.9-5.2-13.9-16.8v-76.6c0-11,3.5-16.8,13.9-16.8c10.4,0,13.9,5.2,13.9,16.8V438.3z M1038.3,324.5v89.4l-35.4-89.4h-23.2
	v150.9h23.2v-89.4l35.4,89.4h23.2V324.5H1038.3z M776.5,475.5h26.1V324.5h-26.1V475.5z M750.4,368.6c0-32.5-14.5-44.7-44.1-44.7
	h-36.6v150.9h26.1v-61.5c4.6,0,9.9,0,13.4-0.6l18.6,62.7h26.1L731.8,407C741.1,402.9,750.4,393,750.4,368.6L750.4,368.6z
	 M705.7,391.9h-9.3v-46.4h9.3c13.9,0,19.2,5.2,19.2,23.2S719.6,391.9,705.7,391.9L705.7,391.9z"/>
</svg>
