<?xml version="1.0" encoding="utf-8"?>
<!-- Generator: Adobe Illustrator 28.0.0, SVG Export Plug-In . SVG Version: 6.00 Build 0)  -->
<svg version="1.0" id="katman_1" xmlns="http://www.w3.org/2000/svg" xmlns:xlink="http://www.w3.org/1999/xlink" x="0px" y="0px"
	 viewBox="0 0 742.88 699.64" style="enable-background:new 0 0 742.88 699.64;" xml:space="preserve">
<style type="text/css">
	.st0{fill:#1C3844;}
	.st1{fill:#EFA735;}
	.st2{fill:#FDFFFE;}
	.st3{fill:#E99930;}
</style>
<path class="st0" d="M625.52,148.23C573.81,82.69,490.85,38.93,407.75,30.74c-9.91-0.97-19.76-2-29.69-1.95
	c-5.6,0.03-11.2,0.12-16.79,0.27c-35.7,0.94-70.87,7.78-105.51,20.51c-61.69,22.69-114.75,61.8-152.07,116.28
	c-0.16,0.23-0.37,0.28-0.62,0.15l-25.35-13.66c-0.37-0.2-0.49-0.67-0.26-1.02c23.16-34.42,53.23-65.36,87.9-88.33
	C215.99,29.44,274.39,7.59,334.88,1.9c13.18-1.24,27.59-2.18,41.12-1.82c17.63,0.47,34.87,1.86,51.74,4.19
	c60.35,8.32,119.01,34.46,166.9,71.12c27.27,20.88,51.02,47.39,70.94,75.92c0.26,0.37,0.12,0.88-0.28,1.07
	c-8.73,4.23-17.24,8.87-25.51,13.93c-0.11,0.07-0.25,0.04-0.33-0.06C634.88,160.22,630.23,154.21,625.52,148.23z"/>
<path class="st1" d="M428.96,245.64c-16.55-7.24-33.95-16.19-51.16-19.9c-13.11-2.82-28.76-1.94-40.15,5.79
	c-4.46,3.03-8.53,8.59-13.3,12.53c-3.05,2.51-5.09,4.5-6.13,5.98c-4.25,6.03-5.19,13.8-4.92,20.85c0.01,0.29-0.32,0.47-0.56,0.29
	c-9.07-6.79-18.36-13.2-27.87-19.23c-21.71-13.76-41.57-24.84-59.57-33.23c-32.95-15.37-66.42-29.64-99.68-44.22
	c-0.45-0.2-0.61-0.76-0.33-1.17c1.35-2,2.74-3.95,4.17-5.85c24.26-32.29,54-58.04,89.21-77.25c37.68-20.55,78.04-33.8,120.83-38.74
	c17.61-2.03,34.61-2.42,51-1.18c29.82,2.27,59,7.71,88.54,18.95c25.28,9.62,49.02,22.06,71.23,37.32
	c26.01,17.88,48.96,40.98,67.74,66.38c0.38,0.51,0.19,1.23-0.39,1.48c-23.89,10.4-47.79,20.89-71.72,31.48
	c-44.68,19.76-88.22,44.09-126.43,75.5c-0.62,0.51-1.06,0.38-1.33-0.37l-6.02-17.1c-0.17-0.49,0-1.04,0.42-1.36
	c6.29-4.69,11.81-10.17,16.56-16.42C429.27,245.94,429.23,245.76,428.96,245.64z"/>
<path class="st0" d="M442.69,406.4c1.37,7.68,2.76,13.35,7.7,19.16c0.3,0.35,0.22,0.56-0.23,0.61c-2.79,0.34-5.55,0.66-8.27,0.97
	c-6.01,0.68-12.33-0.12-18.51-0.18c-1.45-0.01-2.51-0.42-3.87-0.9c-0.44-0.16-0.55-0.03-0.34,0.39
	c15.55,29.95,34.59,54.84,58.14,79.27c13.63,14.13,28.98,26.01,46.05,35.63c0.3,0.17,0.48,0.51,0.45,0.88
	c-0.01,0.23-0.18,0.43-0.51,0.6c-5.24,2.82-12.28,5.01-18.4,4.62c-0.35-0.03-0.45,0.12-0.3,0.43c1.03,2.25,2.05,4.5,3.07,6.76
	c1.23,2.73-0.49,3.31-2.68,4.42c-9.62,4.88-21.71,6.54-32.37,6.65c-0.85,0.01-1.53-0.27-2.35-0.44c-0.28-0.06-0.51,0.22-0.39,0.48
	c1.49,3.25,2.4,6.65,2.75,10.22c0.06,0.61-0.31,1.18-0.89,1.37c-12.8,4.24-25.7,4.44-38.69,0.59c-0.6-0.18-0.95-0.45-1.54-0.77
	c-0.37-0.21-0.55-0.1-0.55,0.32l0.05,11.22c0.01,0.92-0.56,1.75-1.42,2.08c-13.06,5.02-26.49,3.23-38.55-3.54
	c-0.41-0.23-0.93-0.08-1.16,0.34c-4.1,7.8-10.95,12.59-17.56,18.01c-0.34,0.28-0.83,0.3-1.19,0.06
	c-7.42-5.04-14.14-10.22-18.53-18.27c-0.15-0.27-0.48-0.38-0.77-0.26c-12.25,5.54-26.47,9.93-39.31,2.9
	c-0.39-0.21-0.62-0.61-0.61-1.05l0.19-11.49c0.01-0.35-0.16-0.48-0.49-0.37c-13.16,4.01-27.38,3.97-40.21-0.68
	c-0.5-0.18-0.78-0.7-0.66-1.21l2.25-9.93c0.07-0.32-0.3-0.56-0.56-0.35l-0.28,0.23c-0.27,0.22-0.61,0.34-0.97,0.35
	c-10.76,0.26-28.31-1.68-36.93-8.89c-0.24-0.2-0.31-0.54-0.19-0.82l3.43-7.77c0.13-0.29-0.09-0.61-0.41-0.59
	c-6.58,0.44-12.63-1.07-18.15-4.52c-0.55-0.34-0.51-1.15,0.06-1.46c40.13-21.34,72.51-57.87,97.06-96.38
	c4.99-7.83,8.79-14.23,11.4-19.22c0.33-0.63,0.15-0.83-0.52-0.6l-1.64,0.56c-0.26,0.09-0.53,0.15-0.8,0.17
	c-6.74,0.63-13.51,1.22-20.27,0.59c-2.31-0.21-4.63-0.34-6.94-0.37c-0.12,0-0.19-0.14-0.11-0.24c3.76-4.85,6.07-10.34,6.93-16.47
	c0.06-0.43-0.51-0.63-0.73-0.26c-6.85,11.47-25.23,12.52-36.4,8.53c-0.24-0.08-0.28-0.4-0.07-0.54
	c17.17-11.57,28.72-25.73,33.47-46.19c1.73-7.46,0.48-13.28-0.98-19.98c-0.51-2.36-0.9-2.34-1.15,0.07
	c-0.33,3.16-1.45,6.6-3.36,10.33c-3.22,6.3-6.5,12.57-9.85,18.81c-3.75,6.99-9.52,16.78-15.94,22.84c-9.21,8.7-20.46,8.1-31.91,5.76
	c-1.49-0.3-1.6-0.87-0.33-1.7c8.76-5.79,17.97-14.01,24.7-21.08c6.64-6.96,11.86-14.95,15.66-23.98c2.67-6.37,3.02-13.18,1.03-20.43
	c-0.35-1.29-0.7-1.29-1.03,0.01c-0.59,2.3-1.77,4.63-3.55,6.98c-4.69,6.19-9.74,14.21-15.17,24.08
	c-7.2,13.1-23.41,29.49-40.11,27.08c-2.26-0.32-7.75-1.24-9.31-2.87c-0.5-0.53-0.41-1.38,0.2-1.78c4.72-3.12,9.31-6.15,13.77-9.09
	c11.02-7.25,20.46-16.49,28.33-27.7c5.28-7.52,8.2-14.86,6.21-24.33c-0.09-0.4-0.22-0.42-0.4-0.05c-0.53,1.05-0.9,2.09-1.68,2.96
	c-7.84,8.7-16.93,16.42-24.62,24.67c-8.12,8.7-15.69,17.62-26.85,22.38c-16.23,6.93-35.13,3.97-50.63-4.27
	c-0.96-0.51-0.92-0.91,0.13-1.2c0.09-0.02,0.27,0.05,0.56,0.2c0.29,0.15,0.61,0.23,0.95,0.23c10.04-0.02,19.66-1.73,28.87-5.14
	c20.81-7.72,54.25-28.16,50.32-55.62c-0.25-1.81-0.68-1.85-1.27-0.12c-0.13,0.39-0.62,1.03-1.45,1.92
	c-5.9,6.31-11.9,11.85-19.18,17.01c-11.92,8.43-23.29,15.5-34.12,21.21c-7.54,3.97-16.11,6.3-25.72,6.99
	c-18.16,1.3-32.96-5.72-46.01-17.8c-0.5-0.46-0.41-0.65,0.26-0.57c30.1,3.65,58.16-2.3,84.18-17.85
	c5.07-3.03,13.94-8.48,15.04-15.47c0.38-2.44,0.18-5.57-0.59-9.38c-0.07-0.33-0.21-0.37-0.44-0.12c-1.73,1.9-3.91,3.44-6.55,4.61
	c-14.65,6.5-29.29,13.04-43.9,19.62c-13.43,6.04-29.07,8.65-43.35,6.99c-22.14-2.57-38.98-17.32-49.61-36.06
	c-0.24-0.42-0.12-0.62,0.36-0.59c11.35,0.6,22.8,0.66,34.37,0.17c3.7-0.15,12.7-1.18,27-3.09c14.86-1.98,29.7-4.61,43.99-9.23
	c2.61-0.84,5.01-2.1,7.18-3.78c0.17-0.13,0.13-0.39-0.06-0.47c-6-2.41-12.11-4.61-18.34-6.58c-0.73-0.23-1.91-0.35-3.54-0.34
	c-0.35,0-0.54,0.18-0.56,0.53c-0.04,0.81-0.35,1.28-0.92,1.43c-24.74,6.15-49.53,8.94-75,9.19c-21.96,0.22-40.75-7.48-54.37-24.81
	c-8.78-11.17-14.8-23.57-18.06-37.2c-0.13-0.53,0.03-0.64,0.47-0.33c9.02,6.22,18.76,11.05,29.21,14.48
	c1.94,0.64,3.53,1.06,4.78,1.25c1.79,0.28,1.86,0.04,0.21-0.71c-16.52-7.55-33.5-22.77-37.11-41.62c-1.44-7.47-1.5-14.96-0.17-22.45
	c0.51-2.85,0.9-5.73,1.18-8.64c0.13-1.29,0.46-1.34,0.99-0.17c0.85,1.86,1.43,4,2.52,5.74c8.5,13.63,21.21,23.39,35.06,31.4
	c0.04,0.02,0.07,0.01,0.09-0.03l0.15-0.31c0.07-0.13,0.04-0.25-0.07-0.34c-12.37-9.99-21.99-21.73-28.85-35.2
	c-8-15.72-5.86-35.66,0.61-51.66c2.05-5.05,4.2-10.07,6.45-15.05c0.07-0.14,0.24-0.21,0.38-0.15c0.14,0.07,0.24,0.18,0.3,0.34
	c3.08,9.01,6.78,17.15,11.09,24.43c12.46,21.01,34.39,36.13,55.43,47c28.97,14.98,51.97,26.08,68.99,33.31
	c21.99,9.33,41.48,18.09,58.48,26.26c42.41,20.37,83.46,45.17,120.81,75.15c0.29,0.23,0.71,0.19,0.95-0.09
	c4.57-5.36,10.28-14.96,9.81-22.23c-0.51-7.96-6.51-13.98-14.84-11.01c-2.13,0.76-2.2,4.08-2.25,5.99
	c-0.01,0.27-0.33,0.42-0.54,0.24c-4.08-3.39-4.41-12.57-3.23-17.27c1.35-5.32,5.04-8.15,11.07-8.5c0.3-0.02,0.58-0.16,0.76-0.39
	c0.75-0.93,1.2-2.35,1.67-3.13c9.53-15.84,39.37-12.02,52.54-6.27c4.95,2.16,10,4.05,15.15,5.66c0.28,0.09,0.33,0.47,0.07,0.62
	c-4.26,2.44-8.75,4.29-13.48,5.54c-0.22,0.06-0.32,0.3-0.2,0.5c0.99,1.69,2.1,3.49,2.79,5.34c4.39,11.84,8.81,23.67,13.26,35.49
	c0.88,2.34,2.8,6.19,3.64,9.57c0.04,0.17,0.25,0.24,0.39,0.13c21.4-18.3,44.33-34.85,68.65-48.97c32.29-18.76,65.79-34.29,100-49.17
	c29.91-13.01,61-27.68,88.15-43.23c24.61-14.1,46.42-37.01,53.92-64.93c0.05-0.21,0.18-0.34,0.37-0.4c0.2-0.07,0.34,0,0.43,0.19
	c4.38,9.21,8.45,17.44,10.84,28.16c2.19,9.86,2.19,19.46-0.01,28.8c-3.91,16.62-18.82,33.9-31.76,44.39
	c-0.21,0.17-0.23,0.37-0.08,0.59l0.15,0.2c0.06,0.09,0.14,0.11,0.23,0.05c5.21-3.21,10.31-6.59,15.3-10.16
	c7.35-5.25,19.87-16.53,21.47-25.83c0.2-1.19,0.45-1.2,0.76-0.03c2.19,8.52,2.84,17.45,1.96,26.79
	c-1.92,20.31-20.75,37.26-37.83,45.58c-0.06,0.03-0.09,0.09-0.09,0.16c0,0.09,0,0.19,0,0.28c0,0.05,0.03,0.07,0.08,0.06
	c11.65-3.04,23.73-8.59,33.51-15.27c1.23-0.84,1.58-0.56,1.04,0.83c-1,2.59-2.02,5.53-3.07,8.8c-4.51,14.15-12.06,26.1-22.65,35.87
	c-14.87,13.72-32.27,17.1-51.99,16.26c-22.9-0.98-45.76-3.96-68.58-8.95c-0.62-0.14-0.94-0.53-0.95-1.16
	c-0.01-0.17,0.02-0.35,0.08-0.52c0.11-0.33-0.01-0.5-0.36-0.51c-1.24-0.01-2.15,0.08-2.72,0.28c-6.13,2.09-12.11,4.36-17.95,6.79
	c-0.31,0.13-0.34,0.55-0.05,0.72c5.76,3.45,11.93,5.84,18.5,7.17c28.15,5.69,57.49,9.69,86.27,8.75c1.9-0.06,3.74-0.25,5.52-0.56
	c0.28-0.05,0.5,0.25,0.36,0.51c-7.33,13.85-17.99,24.15-31.98,30.92c-7.7,3.71-16.5,5.7-26.4,5.95c-15.17,0.37-28.4-4.7-41.73-11.27
	c-11.22-5.53-22.59-10.72-34.12-15.58c-2.71-1.15-4.93-2.86-6.68-5.14c-0.2-0.27-0.32-0.23-0.37,0.1
	c-1.16,8.1-1.12,12.64,5.58,18.11c24.47,20,54.97,27.45,86.07,25.51c1.81-0.11,3.18-0.3,4.09-0.57c1.91-0.56,2.13-0.17,0.64,1.16
	c-17.49,15.67-39.73,21.8-62.34,13.6c-4.59-1.67-9.77-4.41-15.55-8.24c-16.26-10.79-32.98-20.97-45.35-36.45
	c-0.21-0.27-0.32-0.23-0.31,0.11c0.15,7.63-0.44,13.03,3.92,20.63c8,13.92,20,22.32,34.17,30.75c12.03,7.17,24.61,10.52,37.73,10.05
	c2.25-0.08,2.4,0.44,0.45,1.56c-9.51,5.45-19.99,8.03-31.45,7.74c-13.28-0.33-22.85-6.9-31.58-16.21
	c-7.12-7.6-13.63-14.87-21.66-22.32c-5.02-4.66-10.37-9.58-14.4-15.14c-0.47-0.66-0.7-0.58-0.67,0.23
	c0.35,10.14,0.94,16.47,7.49,24.99c11.1,14.44,25.38,26.1,40.95,35.4c0.31,0.18,0.53,0.49,0.59,0.84c0.17,0.88-0.2,1.51-1.1,1.89
	c-14.39,6-28.41-1.21-38.15-11.69c-6.62-7.13-11.09-16.13-16.31-24.62c-3.71-6.05-9.42-13.01-13.45-20.01
	c-0.3-0.52-0.51-0.48-0.62,0.11c-1.55,8-0.43,15.59,3.37,22.78c5.15,9.75,10.81,17.6,16.97,23.55c7.27,7.03,15.06,13.69,23.36,19.98
	c0.34,0.25,0.23,0.78-0.18,0.89c-9.02,2.34-20.59,3.92-28.99-1.32c-7.02-4.37-12.29-12.82-16.2-19.98
	c-4.42-8.11-8.69-16.29-12.81-24.56c-2.01-4.03-3.66-8.6-4.95-13.73c-0.19-0.77-0.38-0.77-0.56,0.01
	c-1.55,6.83-2.33,13.85-0.99,20.8c2.58,13.35,9.55,25.54,18.76,35.48c3.99,4.31,9.08,8.16,13.94,11.86
	c0.32,0.25,0.22,0.76-0.18,0.85c-15.36,3.5-29.34,3.52-37.8-11.54C442.68,406.09,442.64,406.11,442.69,406.4z"/>
<path class="st2" d="M664.43,186.67c-16.14,22.27-39.82,34.59-66.44,40c-2.17,0.44-2.34,0.03-0.52-1.23
	c6.26-4.33,12.67-8.93,19.4-12.71c15.73-8.83,32.42-16.78,47.2-26.44C664.86,185.77,664.98,185.9,664.43,186.67z"/>
<path class="st2" d="M147.09,227.14c-25.12-6.39-51.72-17.62-66.86-39.93c-0.05-0.08-0.04-0.18,0.03-0.24
	c0.07-0.06,0.17-0.06,0.24,0c1.93,1.64,3.92,3.22,6.23,4.44c14.44,7.61,29.33,15,43.19,23.59c5.71,3.53,11.17,7.36,17.07,10.59
	c0.51,0.27,0.74,0.64,0.71,1.11C147.68,227,147.39,227.21,147.09,227.14z"/>
<path class="st2" d="M81.19,231.14c-12.69-5.14-23.87-12.51-33.54-22.1c-2.23-2.21-2.02-2.48,0.64-0.81
	c7.23,4.55,16.93,7.42,29.01,10.58c13.21,3.45,26.52,6.43,39.95,8.92c7.32,1.36,14.08,3.98,20.04,8.46c4.7,3.53,9.67,6.43,15.4,7.56
	c0.93,0.18,0.96,0.45,0.09,0.82c-9.58,4.01-16.57,2.59-27.34-0.62c-10.73-3.2-21.55-6.07-32.46-8.61
	C90.72,234.81,86.79,233.41,81.19,231.14z"/>
<path class="st2" d="M660.81,231.86c-12.39,4.67-27.65,7.43-37.79,10.96c-6.38,2.21-11.82,4.41-18.11,4.35
	c-4.76-0.04-9.3-1.06-13.62-3.05c-0.71-0.32-0.68-0.53,0.09-0.62c1.55-0.19,3.26-0.04,4.74-0.67c3.43-1.45,7.48-3.89,12.14-7.31
	c4.63-3.39,10.79-5.91,18.48-7.54c19.25-4.1,38.34-8.11,57.02-14.45c4.57-1.56,8.73-3.59,12.47-6.1c0.77-0.52,0.93-0.37,0.47,0.44
	c-0.53,0.93-1.3,1.87-2.29,2.82C684.66,220.04,673.46,227.1,660.81,231.86z"/>
<path class="st2" d="M199.75,262.28c2.7-0.22,2.78-0.8,0.24-1.73c-18.21-6.69-30.68-18.18-40.38-34.7
	c-0.21-0.35-0.13-0.43,0.23-0.24c7.39,3.99,14.79,6.68,22.22,10.11c20.6,9.5,40.85,19.69,60.76,30.56
	c25.63,13.99,50.19,29.67,73.67,47.03c8.99,6.63,17.39,13.85,24.34,22.74c0.27,0.35,0.02,0.85-0.42,0.85
	c-8.56-0.05-17.09-0.77-25.6-2.17c-19.47-3.2-38.12-11.58-54.32-22.77c-0.36-0.25-0.39-0.54-0.09-0.86l0.73-0.76
	c0.73-0.76,0.57-1.23-0.46-1.4c-7.07-1.2-13.72-3.74-19.96-7.61c-6.72-4.17-11.26-7.38-13.63-9.63c-3.45-3.29-7.07-6.15-10.84-8.58
	c-0.81-0.53-0.74-0.8,0.23-0.81c0.84-0.01,1.76,0.33,2.72,0.28c6.51-0.33,13.03-0.43,19.55-0.28c0.21,0,0.38-0.04,0.49-0.13
	c0.08-0.06,0.13-0.13,0.16-0.22c0.08-0.2,0.01-0.32-0.2-0.37c-12.67-2.86-25-5.72-37.2-10.29c-4.89-1.83-8.3-4.94-12.56-7.8
	c-0.34-0.23-0.31-0.36,0.09-0.39L199.75,262.28z"/>
<path class="st2" d="M484.54,310.06l1.58,2.14c0.2,0.27,0.16,0.49-0.11,0.67c-23.7,15.87-52.8,23.88-81.17,24.07
	c-0.37,0.01-0.44-0.14-0.23-0.44c9.15-12.58,20.78-20.85,33.11-29.96c43.83-32.39,92.24-57.43,142.22-78.88
	c1.29-0.55,2.57-1.54,3.81-2.1c0.85-0.39,1.02-0.19,0.52,0.6c-10.45,16.35-20.25,28.41-39.41,34.65c-1.97,0.65-1.93,1.12,0.12,1.43
	c3.67,0.55,7.34,0.92,11.02,1.12c0.5,0.03,0.55,0.19,0.16,0.49c-13.23,10.02-28.52,12.35-44.02,16.73c-1.81,0.51-3.75,0.7-5.71,1.07
	c-0.19,0.04-0.32,0.21-0.3,0.4c0.01,0.18,0.17,0.33,0.36,0.33L529,282.5c1.66,0.01,1.78,0.44,0.36,1.3
	c-1.12,0.66-2.52,1.52-3.63,2.52c-10.91,9.86-25.65,20.94-40.81,22.85C484.29,309.25,484.16,309.55,484.54,310.06z"/>
<path class="st2" d="M68.16,261.97c-11.07-4.22-21.97-8.87-32.7-13.94c-0.11-0.05-0.17-0.17-0.15-0.29l0.05-0.28
	c0.01-0.11,0.07-0.15,0.18-0.1c18.33,7.15,34.21,8.74,55.21,9.57c21.08,0.83,42.16,1.22,63.25,1.17c1.67,0,3.3-0.14,4.91-0.42
	c0.2-0.03,0.35,0.19,0.24,0.36c-2.65,4.11-6.2,10.56-11.58,11.19c-9.09,1.07-16.45,1.63-22.07,1.7
	C106.84,271.16,85.92,268.75,68.16,261.97z"/>
<path class="st2" d="M708.17,247.82c-7.36,3.74-15.08,6.99-22.64,10.34c-15.03,6.67-30.71,10.76-47.04,12.27
	c-13.56,1.25-29.81,0.77-42.25-1.38c-3.9-0.68-7.77-7.6-9.9-10.9c-0.22-0.35-0.13-0.51,0.28-0.49c16.63,0.73,34.34,0.32,53.63-0.07
	c23.44-0.47,46.04-1.59,67.24-10.34c0.17-0.07,0.36-0.03,0.47,0.11l0.24,0.3C708.26,247.73,708.25,247.78,708.17,247.82z"/>
<path class="st2" d="M376.41,257.32c1.02,1.41,2.13,2.84,2.91,4.43c6.38,13.03,11.16,26.59,14.35,40.67
	c4.38,19.34,2.21,34.4-6.73,51.81c-2.32,4.52-6.91,12.12-13.76,22.81c-0.17,0.26-0.33,0.26-0.5,0
	c-10.54-16.43-24.36-36.53-22.56-57.58c0.5-5.88,3.66-11.59,5.98-17.13c3.14-7.48,3.65-15.36,1.54-23.64
	c-1.92-7.56-6.69-10.41-14.05-11.6c-0.76-0.13-1.33-0.78-1.34-1.56c-0.09-7.08,4.35-12.56,11-14.73c7.75-2.53,22.57-1.01,28.21,5.65
	c1.85,2.18,1.5,2.62-1.04,1.31c-1.09-0.56-2.23-1-3.42-1.31C376,256.18,375.8,256.47,376.41,257.32z"/>
<path class="st0" d="M366.49,256.8c-2.54,1.62-4.09,3.47-6.12,5.6c-2.07,2.16-7.48-2.52-8.63-3.94c-0.81-1.01-0.35-2.51,0.89-2.89
	c4.51-1.37,9.07-1.4,13.67-0.08C366.9,255.66,367.02,256.47,366.49,256.8z"/>
<path class="st0" d="M720.53,411.04c-14.77,86.19-64.53,165.29-133.7,217.32c-35.2,26.47-74.67,45.91-118.41,58.32
	c-21.59,6.13-44.33,9.65-66.67,11.66c-35.78,3.22-72.07,0.26-107.22-6.77c-6.65-1.33-13.13-2.88-19.44-4.65
	c-50.85-14.28-101.23-39.67-140.69-75.16C69.15,553.08,26.29,471.45,18.69,383.52c-2.92-33.78-1.79-68.26,5.24-101.5
	c0.07-0.35,0.52-0.47,0.75-0.2c7.06,8.08,15.34,14.62,24.83,19.63c0.31,0.16,0.43,0.41,0.38,0.75c-3.18,21.45-4.47,40.72-3.88,57.82
	c1.92,55.05,18.65,110.19,48.06,157.62c38.19,61.59,91.49,105.51,159.9,131.76c30.37,11.66,61.8,18.61,94.28,20.85
	c4.03,0.28,8.22,0.81,12.02,0.94c102.31,3.51,200.45-41.82,264.58-120.25c51.47-62.96,77.03-144.13,70.72-225.18
	c-0.44-5.6-1.5-12.96-2.01-19.48c-0.1-1.21-0.45-2.18-0.89-3.32c-0.13-0.36-0.03-0.62,0.32-0.78c9.97-4.61,18.33-11.23,25.08-19.88
	c0.23-0.29,0.68-0.18,0.76,0.18c2.91,13.91,4.8,28.01,5.68,42.3c1.09,17.69,1.61,36.06,0.1,53.75
	C723.61,390.13,722.25,400.97,720.53,411.04z"/>
<path class="st2" d="M109.9,313.25c-0.14,0-0.26-0.11-0.27-0.25l-0.03-0.27c-0.01-0.14,0.1-0.26,0.24-0.27
	c20.22-1.88,36.62-9.7,54.05-16.14c6.1-2.26,8.47-3.26,14-1.05c5.13,2.05,10.25,4.12,15.36,6.22c0.41,0.17,0.42,0.35,0.02,0.54
	c-12.54,6.03-25.89,9.63-39.77,10.74c-8.18,0.66-16.42,1.8-24.5,1.24C122.67,313.58,116.31,313.32,109.9,313.25z"/>
<path class="st2" d="M635.51,312.89c0.05,0.01,0.08,0.04,0.07,0.09l-0.02,0.3c-0.02,0.25-0.23,0.44-0.49,0.43
	c-4.23-0.2-8.47-0.22-12.7-0.06c-15.12,0.56-30.2,0.2-45.43-2.69c-8.79-1.67-17.62-5.32-25.71-9.27c-0.29-0.14-0.28-0.26,0.03-0.35
	c6.47-1.96,12.34-5.12,18.74-7.3c1.37-0.47,3.59-0.12,6.64,1.03C598.44,303.29,614.93,310.57,635.51,312.89z"/>
<path class="st3" d="M552.1,539.51c-42.35-20.62-79.48-57.5-105.67-97.78c-0.29-0.46-0.02-1.07,0.51-1.15
	c11.5-1.83,22.93-4.12,34.3-6.89c4.79-1.17,9.11-2.78,12.98-4.85c1.63-0.87,3.24-1.44,4.85-1.71c11.51-1.92,22.52-4.49,32.46-10.87
	c1.55-0.99,3.16-1.7,4.84-2.14c7.88-2.05,15.07-4.65,21.71-9.48c1.01-0.73,2.15-1.14,3.41-1.21c14.02-0.75,26.79-4.91,38.31-12.47
	c3.93-2.57,7.53-6.19,10.98-9.56c1.08-1.06,1.94-1.42,3.3-1.91c19.09-6.83,30.82-18.16,44.15-32.8
	c5.28-5.79,11.33-10.64,16.56-16.43c0.2-0.22,0.52-0.27,0.78-0.12c0.17,0.09,0.26,0.27,0.27,0.52
	c3.61,60.05-12.98,123.21-44.12,173.63c-33.55,54.32-84.64,98.13-144.37,122.4c-32.62,13.25-65.75,20.58-100.61,22.57
	c-43.55,2.48-84.93-5.25-125.72-20.68c-52.51-19.86-98.72-53.61-132.4-98.44C85.58,472.83,63.08,401,67.28,329.22
	c0.02-0.32,0.41-0.46,0.63-0.23c5.47,5.77,11.16,11.06,16.52,16.98c12.54,13.83,25.87,26.51,43.55,32.54
	c3.05,1.04,3.97,1.18,6.3,3.65c13.28,14.12,33.41,21.29,52.52,21.11c1.2-0.02,1.71,0.31,2.58,0.98c7.07,5.33,14.26,7.28,22.16,9.91
	c1.53,0.51,3.19,1.38,4.98,2.61c8.77,6.01,19.64,8.2,29.7,10.11c1.6,0.3,3.18,0.87,4.73,1.7c3.61,1.93,7.8,3.48,12.56,4.65
	c12.13,2.97,24.32,5.3,36.56,7.01c0.38,0.05,0.58,0.48,0.37,0.8c-2.71,4.19-5.53,8.2-8.44,12.01
	c-21.65,28.39-46.4,53.35-76.27,72.61c-7.57,4.87-16.07,9.38-24.31,13.72c-0.54,0.29-0.67,1.01-0.26,1.47
	c7.17,8.03,15.66,14.29,25.49,18.77c0.73,0.33,1.01,0.89,0.85,1.68c-0.66,3.2,0.56,3.85,3.14,5.64c9.02,6.26,17.67,8.72,28.18,11.31
	c0.3,0.07,0.54,0.3,0.61,0.6c0.36,1.39,0.57,2.06,1.77,2.95c12.26,9.13,26.09,14.06,41.48,14.78c1.14,0.05,2.38,0.6,3.31,1.49
	c8.18,7.85,23.12,11.04,33.96,11.07c5.83,0.02,12.11-1.21,18-2.53c0.54-0.13,1.11,0.02,1.52,0.4c6.82,6.2,13.99,11.96,21.52,17.28
	c0.57,0.41,1.35,0.38,1.89-0.06l21.36-17.3c0.48-0.39,1.13-0.5,1.71-0.3c15.35,5.41,39.05,1.98,52.24-8.95
	c0.4-0.34,0.9-0.53,1.43-0.56c16.13-0.87,30.68-6.06,43.63-15.58c0.31-0.23,0.5-0.54,0.55-0.92c0.08-0.59,0.06-1.18-0.05-1.77
	c-0.07-0.37,0.08-0.6,0.45-0.69c11.54-2.67,22.28-6.47,31.38-14.37c0.73-0.63,0.97-1.65,0.59-2.53c-0.17-0.4-0.26-0.81-0.27-1.23
	c-0.01-0.35,0.15-0.6,0.47-0.75c11.25-5.23,18.01-11.25,25.81-19.29C552.32,539.84,552.28,539.6,552.1,539.51z"/>
<path class="st2" d="M438.63,415.93c-13.46-13.91-15.99-32.54-10.74-50.6c0.59-2.06,1.01-3.85,1.25-5.38
	c0.27-1.73,0.45-1.73,0.54,0.02c0.23,4.66,1.05,9.44,2.44,14.33c1.9,6.69,3.67,13.42,5.31,20.18c0.34,1.41,0.53,2.85,0.56,4.3
	c0.11,5.68,0.43,11.35,0.97,17C438.99,416.14,438.88,416.19,438.63,415.93z"/>
<path class="st2" d="M316.21,376.03c1.06-3.76,2.03-7.94,1.31-11.86c-0.02-0.1,0.05-0.21,0.16-0.23l0.27-0.05
	c0.17-0.03,0.27,0.04,0.32,0.2c1.7,5.17,2.85,10.74,3.46,16.69c0.83,8.23-0.29,15.99-3.37,23.26c-1.99,4.7-5.4,8.62-9.02,12.21
	c-0.23,0.23-0.33,0.18-0.31-0.14c0.51-7.13,0.28-14.33,2.07-21.25C312.72,388.56,314.42,382.28,316.21,376.03z"/>
<path class="st2" d="M346.79,464.06c-6.75,3.95-3.57,14.02-1.92,19.5c0.27,0.89-0.06,1.29-0.98,1.2c-1.93-0.18-3.72-1.18-5.36-3.01
	c-6.38-7.1-6.25-19.99,1.06-26.62c7.14-6.46,18.68,2.42,21.83,8.96c1.68,3.5,2.51,11.69-1.44,14.13c-1.14,0.7-2.63,0.11-2.99-1.17
	c-1.47-5.21-3.19-11.65-9.28-13.12C347.38,463.85,347.08,463.89,346.79,464.06z"/>
<path class="st2" d="M396.61,464.37c-5.79-1.66-8.5,9.76-9.59,13.09c-0.11,0.31-0.3,0.55-0.59,0.7c-1.41,0.79-2.7,0.52-3.67-0.82
	c-2.19-3.04-2.13-6.43-1.49-10.01c1.31-7.37,8.25-12.99,15.23-14.49c6.05-1.3,11,5.5,12.57,10.94c1.31,4.57,0.95,9.41-1.1,14.52
	c-0.82,2.05-2.38,3.72-4.36,4.69l-2.64,1.28c-2.09,1.02-2.75,0.43-1.98-1.76c1.42-4.09,2.24-6.67,2.45-7.76
	C402.13,471.37,400.42,465.46,396.61,464.37z"/>
<path class="st2" d="M374.4,577.36c-0.64,1.86-1.38,3.6-2.21,5.21c-0.17,0.34-0.67,0.3-0.8-0.06c-2.4-6.74-4.99-13.7-6.19-20.46
	c-1.24-7-1.84-14.42-1.79-22.27c0.09-13.65,1.25-26.81,3.48-39.5c0.95-5.39,2.4-11.11,4.36-17.16c0.08-0.24,0.16-0.24,0.23,0
	c3.09,9.89,5.01,17.7,5.77,23.42c0.65,4.91,1.77,10.26,2.17,14.69C381.03,539.29,380.69,559.25,374.4,577.36z"/>
<path class="st2" d="M293.94,561.63c2.27-11.68,7.04-21.91,13.02-32.19c6.88-11.82,13.83-23.6,20.86-35.33
	c0.99-1.67,1.74-3.44,2.25-5.31c0.03-0.11,0.09-0.15,0.2-0.12l0,0c0.11,0.02,0.15,0.08,0.13,0.19c-3.12,17.34-6.17,33-15.04,48.55
	c-4.86,8.5-11.19,15.25-18.58,21.58c-0.93,0.8-1.66,1.91-2.33,2.85C293.94,562.56,293.77,562.48,293.94,561.63z"/>
<path class="st2" d="M423.09,528.13c-5.91-13.32-7.74-26.01-11.2-39.35c-0.07-0.28-0.04-0.3,0.11-0.05
	c11.22,19.27,23.2,37.34,29.42,49.64c3.87,7.66,6.53,15.63,7.98,23.92c0.15,0.82-0.02,0.89-0.51,0.22
	c-3.88-5.44-10.06-10.53-13.37-14.46C430.45,542.04,426.31,535.4,423.09,528.13z"/>
<path class="st2" d="M415.05,575.59c-21.11-23.98-22.07-55.26-22.93-85.31c-0.01-0.47,0.05-0.48,0.2-0.04
	c0.97,2.96,1.71,6.21,2.81,8.99c4.6,11.56,9.32,23.07,14.16,34.53c1.53,3.62,2.92,7.87,4.15,12.75c2.37,9.38,2.31,19.27,1.98,28.95
	C415.41,575.81,415.28,575.86,415.05,575.59z"/>
<path class="st2" d="M337.36,525.13c5.53-12.98,9.03-21.56,13.21-32.4c0.41-1.09,0.57-1.05,0.46,0.1c-0.44,4.72-0.69,9.7-0.74,14.94
	c-0.23,23.91-5.77,49.11-22,67.37c-0.42,0.47-0.64,0.39-0.67-0.24c-0.61-12.45-0.35-22.91,4.22-35.68
	C333.54,534.47,335.38,529.77,337.36,525.13z"/>
<path class="st2" d="M483.91,548.97c-20.23-5.52-32.92-21.5-40.28-40.26c-1.57-3.99-3.06-7.7-4.49-11.14
	c-0.77-1.88-0.56-2,0.65-0.37c1.01,1.37,2.14,3.01,3.39,4.39c7.96,8.8,15.8,17.7,23.53,26.71c5.88,6.86,11.82,13.39,17.83,19.6
	C485.62,549.03,485.41,549.38,483.91,548.97z"/>
<path class="st2" d="M304.36,497.73c-7.68,19.31-17.81,43.39-40.41,49.09c-1.82,0.46-3.54,0.93-5.16,1.42
	c-1.72,0.51-1.94,0.14-0.67-1.12c0.26-0.26,1.08-0.64,1.52-1.11c14.82-16.14,29.64-32.22,44.17-48.62
	C304.65,496.44,304.83,496.55,304.36,497.73z"/>
</svg>
